<?xml version="1.0" encoding="UTF-8"?><svg id="Layer_1" xmlns="http://www.w3.org/2000/svg" viewBox="0 0 416.09 195.47"><defs><style>.cls-1,.cls-2{fill:#fff;}.cls-3{fill:none;isolation:isolate;opacity:.5;stroke:#fff;stroke-linecap:round;stroke-miterlimit:10;stroke-width:.5px;}.cls-2{fill-rule:evenodd;}</style></defs><g id="Layer_1-2"><g id="Ebene_1"><g id="_875458096"><path class="cls-2" d="m195.2,99.48v-3.31c-.03-.55-.07-1.05-.14-1.51l-.04-.25-.26-.15c-4.15-2.46-9.49-3.89-14.85-4.01-.12-.7-.76-5.67-.86-6.37,5.09-1.44,9.93-4.19,13.33-7.72l.19-.19-.04-.23c-.24-1.92-1-4.53-1.65-6.15l-.11-.27-.28-.05c-4.63-1.31-10.22-1.28-15.31,0-.35-.64-2.2-5.18-2.47-5.88,4.53-2.77,8.48-6.65,10.89-10.85l.16-.23-.16-.31c-.66-1.6-2-3.93-3.18-5.44l-.16-.22h-.23c-4.84-.09-10.18,1.37-14.91,3.91-.47-.58-3.5-4.57-3.92-5.15,3.64-3.77,6.51-8.59,7.72-13.34l.08-.24-.2-.21c-1.09-1.44-3.02-3.44-4.45-4.51l-.21-.23-.21.12c-4.75,1.16-9.57,3.98-13.36,7.67-.6-.46-4.63-3.62-5.17-4.04,2.51-4.47,4-9.72,4-14.52v-.66l-.22-.14c-1.44-1.14-3.79-2.48-5.45-3.19l-.25-.12-.24.13c-4.23,2.4-8.11,6.33-10.82,10.85-.68-.28-5.55-2.33-6.18-2.58.64-2.53,1.02-5.17,1.06-7.79,0-2.65-.34-5.21-1.06-7.55l-.08-.29-.21-.08c-1.66-.72-4.25-1.43-6.16-1.64l-.23-.07-.16.17c-3.51,3.4-6.27,8.21-7.76,13.33-.71-.07-5.72-.72-6.5-.89,0-5.22-1.47-10.6-3.99-14.78l-.14-.22-.23-.07c-.87-.11-1.94-.16-3.04-.16h-.21c-1.09,0-2.19.05-3.07.16l-.26.07-.11.22c-2.52,4.18-3.96,9.57-4.07,14.83-.69.13-5.81.77-6.54.84-1.46-5.11-4.24-9.96-7.73-13.35l-.22-.19-.3.04c-1.85.28-4.47.99-6.05,1.65l-.25.06-.04.3c-.71,2.37-1.04,4.93-1.04,7.63-.04,2.6.36,5.21,1,7.73-.67.27-5.55,2.39-6.21,2.63-2.75-4.53-6.69-8.49-10.87-10.85l-.28-.13-.18.12c-1.7.69-4.08,2.06-5.49,3.16l-.23.16v.7c0,4.69,1.44,9.95,4.02,14.47-.56.42-4.31,3.32-4.86,3.75-3.75-3.65-8.56-6.49-13.34-7.71l-.22-.05-.23.14c-1.42,1.13-3.37,3.04-4.54,4.51l-.1.21.05.21c1.2,4.74,3.98,9.54,7.64,13.36-.43.57-3.58,4.83-4.01,5.35-4.62-2.56-9.98-4.05-14.84-3.98h-.29l-.17.22c-1.05,1.44-2.4,3.74-3.14,5.44l-.12.25.12.27c2.37,4.23,6.36,8.14,10.91,10.89-.28.69-2.16,5.21-2.44,5.84-5.15-1.26-10.76-1.3-15.38.06l-.25.07-.08.23c-.72,1.6-1.44,4.18-1.67,6.12l-.05.27.14.17c3.44,3.46,8.28,6.24,13.36,7.7-.08.68-.72,5.71-.83,6.41-5.36.08-10.74,1.51-14.93,3.98l-.21.12-.02.29c-.12.94-.15,2.04-.15,3.16s.04,2.29.15,3.16l.02.29.21.14c4.19,2.49,9.57,3.88,14.93,3.94.07.71.83,5.89.88,6.6-5.13,1.52-9.93,4.27-13.34,7.75l-.17.22.05.3c.29,1.88.98,4.53,1.61,6.11l.14.21.23.07c4.69,1.32,10.26,1.28,15.39,0,.32.64,2.24,5.19,2.54,5.89-4.51,2.7-8.46,6.61-10.88,10.85l-.11.23.11.25c.72,1.68,2.06,4.06,3.19,5.54l.16.16h.25c4.81.13,10.21-1.38,14.84-3.98.44.61,3.59,4.68,4,5.25-3.64,3.74-6.45,8.56-7.69,13.28l-.07.24.15.25c1.15,1.46,3,3.32,4.43,4.47l.25.17.24-.07c4.68-1.2,9.52-3.96,13.32-7.63.57.42,4.72,3.58,5.27,4.01-2.5,4.61-3.95,9.86-3.95,14.65v.5l.18.18c1.48,1.11,3.77,2.43,5.51,3.2l.27.07.23-.13c4.19-2.33,8.17-6.33,10.93-10.94.64.29,5.09,2.09,5.75,2.38-.66,2.52-1.02,5.11-1.02,7.69s.37,5.29,1.08,7.66l.08.22.2.1c1.69.69,4.19,1.43,6.1,1.71l.29.05.19-.18c3.49-3.44,6.26-8.27,7.66-13.3.71.05,5.86.78,6.59.86.12,5.31,1.58,10.69,4.03,14.87l.16.22.23.04c1.85.26,4.56.26,6.27,0l.29-.04.14-.22c2.52-4.17,3.98-9.56,4.07-14.87.69-.14,5.57-.8,6.21-.86,1.44,5.06,4.18,9.91,7.76,13.32l.16.2.29-.04c1.86-.32,4.52-.98,6.09-1.64l.25-.14.04-.23c.64-2.38,1.1-5.01,1.1-7.64-.07-2.61-.46-5.25-1.1-7.76.64-.28,5.36-2.3,6.01-2.59,2.72,4.53,6.71,8.47,10.86,10.9l.28.09.17-.07c1.69-.69,4.07-2.07,5.5-3.22l.29-.16v-.66c0-4.72-1.51-9.95-3.98-14.49.58-.43,4.45-3.45,5.01-3.89,3.8,3.67,8.68,6.46,13.3,7.7l.35.07.17-.14c1.42-1.15,3.4-3.08,4.47-4.53l.14-.17-.07-.24c-1.14-4.75-3.93-9.57-7.62-13.36.42-.56,3.55-4.69,3.98-5.25,4.68,2.61,10.04,4.03,14.84,3.98h.3l.13-.22c1.17-1.44,2.49-3.84,3.19-5.5l.07-.24-.12-.23c-2.24-4.16-6.21-8.07-10.7-10.91.19-.66,2.09-5.17,2.33-5.81,5.13,1.27,10.67,1.32,15.37-.04l.24-.04.08-.26c.75-1.67,1.43-4.24,1.69-6.15v-.23l-.14-.22c-3.39-3.51-8.25-6.25-13.27-7.69.1-.69.69-5.54.81-6.22,5.38-.14,10.75-1.55,14.89-4.03l.26-.14.04-.24c.06-.46.11-.99.14-1.54v-.02Zm-46.33,39.63l1.45,2.29,1.33,2.31,1.78-2.31.47-.58-5.03-1.71h0Zm-71.74,21.23c-.07-.34-.22-.62-.64-.81l-3.08-1.14-.69,1.95-.24.71-.02.05,2.81,1.05c.77.34,1.51-.34,1.78-1.1.09-.21.17-.46.09-.71h0Zm24.12,8.19l-.96-2.35-.96-2.54-.84,2.54-.82,2.51,3.58-.15Zm33.39-10.02c0-.74-.19-1.39-.54-2.03-1.02-1.89-3.43-2.51-5.32-1.42-1.33.71-2,2.06-2,3.45.05.64.2,1.35.57,1.95.11.19.23.39.42.6,1.18,1.42,3.26,1.74,4.87.81.44-.22.79-.5,1.07-.81.59-.71.92-1.67.92-2.54h0Zm26.38-24.01l-8.98-4.95-1.15,2.06,10.77,6.01,4.16-7.45-1.85-.99-2.95,5.29v.02Zm-118.62-6.17l-10.57,6.17c.38.74.78,1.6,1.25,2.32l10.58-6.18c-.51-.93-.81-1.43-1.27-2.31h0Zm6.78,9.85l-5.72,4.94,2.91-8.47c-.51-.73-.76-1.24-1.3-1.9l-10.26,6.96c.46.69,1.02,1.33,1.51,2.04l6.17-4.27-2.89,8.54c.5.57,1.01,1.42,1.71,2l9.48-8.14c-.52-.56-1.16-1.06-1.62-1.69h.02Zm6.27,9.37l-6.51,7.73-2.03-1.76,6.73-7.5c-1.06-.99-1.88-1.88-2.91-2.79l1.5-1.51c2.56,2.43,4.82,4.3,7.64,6.58l-1.3,1.66c-1.03-.81-2.09-1.59-3.13-2.4h0Zm7.64,5.79c1.67.91,3.3,1.85,5.12,2.71l1.09-1.81c-2.52-1.31-4.9-2.79-7.01-4.26l-6.96,10.21c2.64,1.75,5.06,3.21,7.76,4.78l1.13-1.8-5.62-3.31,1.89-2.67,3.71,2.24,1.08-1.74c-1.2-.66-2.44-1.42-3.74-2.21l1.53-2.14h0Zm16.34,7v.67c-.19,1.64-1.3,3.31-3.1,3.52l.41,5.72c-.84-.19-1.78-.47-2.68-.85l-.1-5.39-2.43-1.04-1.97,4.75c-.79-.26-1.59-.51-2.36-.9l2.49-5.79.3-.71,2.02-4.78,5.51,2.13c1.23.44,1.79,1.52,1.88,2.65l.02.02Zm10.57.12l-.89,7.47-3.59-8.19c-.84-.16-1.37-.38-2.22-.51l-2.82,12.09c.87.23,1.71.32,2.61.49l1.51-7.43,3.64,8.28c.83.13,1.76.39,2.72.36l1.35-12.49c-.71-.04-1.55.07-2.31-.05h0Zm12.84,5.72l2.66,6.45c-.87.04-1.69.13-2.46.22l-.82-2.09-5.32.14-.61,2.18c-.85-.07-1.64-.1-2.49-.1l2.3-6.82,1.63-5.17.08-.16,2.71-.13.14.32,2.18,5.13v.02Zm11.75-7.58c-3.58.78-6.34,1.43-9.88,1.98l.33,2.06c1.32-.21,2.52-.36,3.89-.54l1.79,9.93,2.63-.5-2.14-9.9c1.35-.33,2.61-.68,3.95-.99l-.59-2.05h0Zm2.91-1.04l4.07,11.62c.79-.28,1.64-.51,2.44-.87l-3.95-11.57c-1.08.37-1.58.51-2.57.81h0Zm18.51-2.11c.52.92.78,1.97.82,3.06,0,.85-.18,1.71-.53,2.5-.57,1.14-1.42,2.15-2.6,2.84-2.87,1.68-6.58.68-8.33-2.28-.06-.17-.14-.35-.25-.56-.35-.78-.52-1.65-.59-2.5.07-2.17,1.14-4.18,3.08-5.31,2.91-1.65,6.68-.67,8.4,2.25h0Zm4.52-11.55l5.08,5.48-8.54-2.52c-.71.54-1.19.73-1.81,1.28l7.43,9.99c.63-.5,1.29-1.09,1.88-1.6l-4.51-6,8.62,2.6c.59-.51,1.44-1.09,2.02-1.82l-8.6-9.1c-.46.5-.99,1.15-1.58,1.7h0Zm6.94-7.59l12.22,4.01c-.29.36-.51.71-.78,1.07-.21.28-.47.55-.64.91l-2.14-.78-3.34,4.16,1.22,1.91c-.5.57-1.06,1.18-1.69,1.81l-4.84-8.03-1.79-2.96,1.77-2.13h0ZM101.77,30.35c1.33.06,2.58.22,3.82.39l-.66-2.56-.83-2.64-1.24,2.64-1.1,2.17h0Zm-27.5,1.14c.16,2.18,2.09,3.77,4.19,3.59,2.06-.22,3.62-1.87,3.62-3.95.07-.1,0-.23,0-.36-.18-2.19-2.06-3.72-4.25-3.52-2.07.15-3.63,1.79-3.56,3.88v.36Zm41.93-1.14l2.75.89c.75.22,1.75-.96,1.75-1.99,0-.49-.17-.92-.83-1.06-1.02-.4-1.71-.57-2.82-.85l-.57,1.91s-.28,1.1-.28,1.1Zm-55.08,4.08l.34.58,1.24,2.15,2.58-1.35c.24-.12.38-.42.42-.79.05-1.16-.79-2.74-2.02-2.01-.96.5-1.53.84-2.58,1.43h0Zm10.91-2.72v-.58c-.06-3.16,2.36-5.77,5.55-6.02,3.37-.32,6.36,2.15,6.64,5.54v.49c0,3.16-2.39,5.86-5.63,6.16-3.27.29-6.28-2.17-6.57-5.59h0Zm27.7,2.81c-1.03,0-1.51,0-2.51,0l3.05-6.33,2.77-5.75,2.74.28,1.44,5.46,1.99,7.34c-.92-.17-1.64-.32-2.52-.36l-.71-2.3c-1.81-.28-3.45-.37-5.13-.44l-1.14,2.1h0Zm14.78,2.26c-.98-.29-1.71-.41-2.79-.72l2-6.81,1.46-4.86c2.11.52,4.11,1.21,6.11,1.86,1.14.35,1.74,1.63,1.86,2.99.07,1.86-.85,3.87-2.72,4.29l.73,5.49c-.87-.36-1.53-.64-2.51-1.02l-.64-4.8-2.35-.72-1.14,4.28h0Zm-56.09-1.77l-.69-1.23c1.79-1.14,3.71-2.12,5.57-3.12,2.18-1.21,5.26,1.71,5.05,4.34-.05.46-.17.88-.44,1.31l4.47,3.25c-.84.4-1.48.73-2.49,1.17l-3.91-2.86-2.16,1.15,2.3,3.8c-.89.57-1.43.92-2.47,1.52l-5.24-9.35h0Zm31.17-10.12l1.08,10.02,2.63-.28-1.03-9.94,3.98-.24-.15-2.24c-4.44.25-6.27.43-10.66,1.09l.29,2.12,3.87-.53h0Zm38.45,17.56l2.66-5.12,7.18-3.34c-.76-.54-1.57-.92-2.33-1.42l-4.94,2.25-.91-5.36c-1.03-.49-1.65-.7-2.72-1.14l1.43,7.81-2.66,5.06,2.3,1.26h0Zm-30.53,74.7c10.7,0,19.4-8.68,19.4-19.38s-8.7-19.39-19.4-19.44c-10.69,0-19.38,8.74-19.38,19.44s8.69,19.38,19.38,19.38Zm0-1.89c-9.62,0-17.48-7.9-17.48-17.49s7.86-17.53,17.48-17.53,17.47,7.85,17.47,17.53-7.83,17.49-17.47,17.49Zm48.61,1.68c.8.52,1.74,1.15,2.59.86.58-.17,1.07-.8,1.39-1.94,3.8-12.86,3.8-23.85,0-36.55-.23-.79-.6-1.62-1.27-1.92-.68-.24-1.52.04-2.74.86l-24.85,16.89c-.96.65-1.45,1.52-1.45,2.44s.49,1.78,1.45,2.43l24.89,16.93h0Zm-5.48-53.77c.04-.51-.28-1.16-1-1.88-9.23-9.76-18.71-15.23-31.72-18.32-.73-.19-1.58-.36-2.14.14-.59.47-.75,1.37-.63,2.71l2.15,30.08c.07,1.14.59,2.05,1.34,2.51.83.47,1.83.39,2.87-.12l27.09-13.07c.87-.42,1.86-.88,2.05-1.8,0-.05.04-.14,0-.25h0Zm-86.14.48c.12.9,1.14,1.37,2.05,1.79l27.05,13.14c1.07.51,2.07.51,2.89.09.77-.5,1.25-1.36,1.33-2.52l2.18-30.01c.12-1.45-.08-2.3-.6-2.75-.57-.5-1.42-.35-2.24-.21-12.97,3.12-22.42,8.6-31.73,18.31-.75.85-1.1,1.57-.93,2.15h0Zm-5.44,14.8c-.88-.57-1.82-1.23-2.6-.88-.63.19-1.08.85-1.42,1.91-3.76,12.91-3.76,23.85,0,36.58.25.83.54,1.66,1.3,1.87.61.25,1.53,0,2.71-.82l24.83-16.91c.92-.62,1.48-1.51,1.48-2.39,0-.96-.56-1.8-1.48-2.45l-24.83-16.91h0Zm5.82,53.83c0,.51.35,1.15,1,1.84,9.32,9.8,18.75,15.25,31.71,18.29.83.25,1.64.38,2.22-.07.59-.43.75-1.33.65-2.75,0-.05-2.2-30.07-2.2-30.07-.09-1.14-.52-2.01-1.33-2.47-.81-.48-1.81-.48-2.89.02l-27.03,13.15c-.95.44-1.97.94-2.11,1.82,0,.05-.03.17-.03.25h0Zm50.82,19.62c.46.36,1.21.47,2.36.18,12.93-3.1,22.4-8.58,31.64-18.27.55-.64,1.15-1.3.97-2.02-.17-.7-.77-1.33-2.03-1.93l-27.1-13.15c-1.03-.49-2.03-.49-2.86-.05-.79.5-1.28,1.35-1.35,2.54l-2.19,29.99c-.02.98-.14,2.1.54,2.7h0ZM48.51,40.88l8.02,8.93c1.12,1.21,2.35,1.05,3.98-.21,10.13-7.95,23.13-12.65,36.99-12.65s26.88,4.69,37.12,12.65c1.6,1.18,2.79,1.42,3.98.21l8.02-8.93c.91-.99.91-2.35-.83-3.8-13.45-10.48-30.06-16.94-48.31-16.94s-34.99,6.46-48.2,16.98c-1.73,1.41-1.65,2.77-.76,3.76h0Zm119.78,82.15l-11.56-3.95c-.6-.23-2.18-.23-3.01,1.81-9.33,22.38-31.07,37.71-56.23,37.71s-47.32-15.67-56.25-38.05c-.67-1.69-2.29-1.69-2.9-1.46l-11.49,3.95c-1.24.45-1.99,1.56-1.34,3.16,11.29,28.81,39.37,49.16,71.99,49.16s60.83-20.48,72.16-49.28c.59-1.51-.13-2.58-1.36-3.03v-.02Zm-143.33-6.18l11.53-3.34c1.08-.32,1.97-1.45,1.88-2.86-4.14-21.47,1.12-38.88,13.71-52.84,1.27-.9,1.41-2.77.19-4.05l-8.38-8.43c-.81-.93-2.3-.93-3.56.36-16.07,16.91-24.18,42.86-18.23,69.39.32,1.27,1.33,2.21,2.86,1.77h0ZM154.93,45.58c-1.13-1.39-3.01-1.18-3.55-.22l-8.36,8.39c-1.23,1.27-1.1,3.14.16,4.05,12.61,13.96,17.88,31.33,13.74,52.84-.09,1.41.79,2.54,1.89,2.86l11.55,3.34c1.54.43,2.52-.5,2.85-1.81,5.94-26.49-2.19-52.52-18.3-69.45h.02Zm-57.22,63.9c-6.3,0-11.55-5.25-11.55-11.64,0-5.07,3.28-9.5,8.16-10.98.05-.52.18-3.16.18-3.16h5.87s.14,2.43.21,2.95c5.08,1.27,8.77,5.89,8.77,11.2,0,6.39-5.25,11.64-11.63,11.64h0Z"/></g></g><line class="cls-3" x1="245.7" y1="194.53" x2="245.7" y2=".87"/><path class="cls-2" d="m337.26,100.48c-14.24-12.24-29-23.93-14.27-37.67-9.96.26-16.47,12.46-13.26,21.81,4.22,12.29,13.34,20.88,22.15,28.89,2.82-3.98,5.31-7.62,7.72-11.03-.8-.69-1.59-1.36-2.33-2.01h0Zm28.81,41.81c-.46-9.57-5.54-18.17-11.82-25.52-.21.25-.41.5-.6.75,0,0-2.76,3.61-2.87,3.61.5-3.55.57-4.1.6-4.34.08-.6.39-1.34.91-2.23-1.41-1.54-2.85-3.03-4.32-4.44-.2.24-.4.49-.59.73-2.34,3.1-4.81,6.53-7.39,10.24,7.32,7.21,13.02,14.76,13.23,24.98.2,9.17-4.7,24.25-29.19,27.87,17.82,8.7,43.32-4.7,42.03-31.65h0Z"/><path class="cls-2" d="m329.33,67.56c-7.01,9.94,4.12,23,7.74,26.23,1.65,1.48,3.55,2.92,5.6,4.42.14-.18.26-.36.4-.54,1.11-1.57,2.21-3.15,3.3-4.72-11.14-8.23-20.57-16.67-17.04-25.39Zm26.84,32.47c-.17.19-.34.38-.5.58-.11.13-.11.14,0,0-1.22,1.51-2.43,3.03-3.66,4.53,1.51,1.2,3.03,2.5,4.53,3.91,1.33-1.51,2.93-3.24,4.8-5.18-1.65-1.28-3.38-2.56-5.15-3.85h0Zm8.14,6.27c-1.88,1.75-3.66,3.48-5.32,5.19,5.89,6.11,11.32,14.22,14.69,26.05,3.98,13.99-4.09,39.14-24.74,43.89-5.82,1.34-13.71,3.43-22.16.95-17.23-5.08-28.83-22.89-25.13-42.82-17.98,32.94,11.96,58.47,37.92,55.7,47.48-5.07,66.95-53.64,24.73-88.97h0Z"/><path class="cls-2" d="m325.56,38.35c5.86,0,11.58,8.68,11.58,14.38s-5.35,6.85-11.96,5.46c-6.62-1.39-10.02-5.9-10.02-11.59s4.53-8.25,10.39-8.25h0Z"/><path class="cls-2" d="m362.59,12.06c-2.2,4.23-11.49,7.17-15.6,5.03-4.11-2.14-3.34-7.43-1.14-11.66,2.2-4.23,6.77-6.81,10.88-4.67,4.11,2.14,8.06,7.07,5.86,11.3h0Z"/><path class="cls-2" d="m331.55,130.51c-7.08,11.96-9.48,24.37-9.84,36.46-17.99-40.45,42.43-74.38,44.65-117.38.86-16.62-13.34-26.99-13.77-27.31,60.21,29.61-1.01,74.31-21.05,108.23h0Z"/><path class="cls-2" d="m365.24,17.58c12.73,4.04,39.47,14.04,40.58,31.37,1.11,17.34-52.09,60.2-53.15,67.79,17.89-22.55,64.48-48.97,63.4-68.61-.6-11.1-13.66-25.52-50.83-30.56h0Z"/><path class="cls-1" d="m176.96,185.86c-4.94,0-8.96-4.02-8.96-8.96s4.02-8.96,8.96-8.96,8.96,4.02,8.96,8.96-4.02,8.96-8.96,8.96Zm0-16.11c-3.94,0-7.14,3.2-7.14,7.14s3.2,7.14,7.14,7.14,7.14-3.2,7.14-7.14-3.2-7.14-7.14-7.14Z"/><path class="cls-1" d="m176.47,176.17c.5,0,.87-.1,1.08-.29.22-.18.33-.5.33-.93s-.12-.73-.33-.92c-.22-.18-.59-.27-1.08-.27h-1.02v2.41h1.02m-1.02,1.67v3.55h-2.42v-9.38h3.7c1.24,0,2.14.21,2.71.63.59.41.87,1.06.87,1.97,0,.62-.14,1.13-.44,1.53-.3.39-.75.69-1.35.87.33.08.63.25.89.52.26.26.53.67.79,1.21l1.32,2.66h-2.58l-1.14-2.33c-.23-.46-.46-.79-.7-.96-.23-.17-.56-.26-.95-.26h-.69"/></g></svg>